<?xml version="1.0" encoding="utf-8"?>
<!-- Generator: Adobe Illustrator 27.0.1, SVG Export Plug-In . SVG Version: 6.00 Build 0)  -->
<svg version="1.1" baseProfile="tiny" id="Interestonresume"
	 xmlns="http://www.w3.org/2000/svg" xmlns:xlink="http://www.w3.org/1999/xlink" x="0px" y="0px" viewBox="0 0 5009.3 2980.3"
	 overflow="visible" xml:space="preserve">
<path fill-rule="evenodd" fill="#EEEEEE" d="M1579.8,603.4c301.5,325.9,281.8,834.4-44,1135.9c-139.7,129.3-320.8,204.8-511,213.1
	L998.5,1350c47.6-2.1,92.9-20.9,127.8-53.3c81.4-75.3,86.4-202.5,11-284L1579.8,603.4L1579.8,603.4z M873.9,1944.7
	c-181.9-26.6-349.2-114.6-474.1-249.6c-292-315.6-283.9-805.1,18.4-1111L704,866.8c-151.1,152.9-155.2,397.6-9.2,555.4
	c62.5,67.5,146.1,111.5,237,124.8L873.9,1944.7L873.9,1944.7z M558.2,471.1c282.5-179.8,646.8-165.6,914.4,35.5l-171.5,228.3
	C1128.6,605.3,893.7,596.2,711.5,712L558.2,471.1L558.2,471.1z"/>
<path fill-rule="evenodd" fill="#EEEEEE" d="M766.8,2901.3c-206.9-95.5-479.7-562.2-234.9-730.2c144-98.8,351.3-69.1,516.1-84.3
	c282.5-26,556.9-133.5,734.7-363.3c379.8-491.1,199-1657.1,1098.2-1611.6c382.9,19.4,687.7,280.2,838.7,619.3
	c79.9,179.3,124.6,422.7,265.5,567.2c155.1,159,417.6,43.4,607,36c146.5-5.7,231.5,89.1,219.7,234.3
	c-41.5,508.9-745.4,834.8-687.7,1341.2L766.8,2901.3L766.8,2901.3z"/>
<path fill-rule="evenodd" fill="#767FAD" d="M4217.5,690.4c5.2-23.9,0.6-46.8-12.6-63.7s-34.1-26.4-58-26.4H2427.1
	c-23.9,0-48.9,9.5-69.4,26.4s-35,39.8-40.1,63.7L1863,2792.2c-5.2,23.9-0.6,46.8,12.6,63.6c13.2,16.9,34.1,26.4,58,26.4h1719.8
	c23.9,0,48.9-9.5,69.4-26.4s35-39.7,40.1-63.6L4217.5,690.4z"/>
<path fill-rule="evenodd" fill="#FFFFFF" d="M2779.9,1277.5c6.6-30.4-12.8-55.1-43.2-55.1h-162.1c-30.4,0-60.4,24.7-67,55.1
	l-0.9,4.1c-6.6,30.4,12.8,55.1,43.1,55.1h162.1c30.5,0,60.5-24.7,67.1-55.1L2779.9,1277.5z"/>
<path fill-rule="evenodd" fill="#FFFFFF" d="M2981.4,1469c3.9-17.9-7.5-32.5-25.4-32.5h-450.2c-17.9,0-35.6,14.5-39.5,32.5l0,0
	c-3.9,17.9,7.5,32.5,25.4,32.5h450.2C2959.8,1501.5,2977.5,1486.9,2981.4,1469L2981.4,1469z"/>
<path fill-rule="evenodd" fill="#FFFFFF" d="M2960.5,1565.4c3.9-17.9-7.5-32.5-25.4-32.5h-450.2c-17.9,0-35.6,14.5-39.5,32.5l0,0
	c-3.9,17.9,7.5,32.5,25.4,32.5H2921C2939,1597.8,2956.7,1583.3,2960.5,1565.4L2960.5,1565.4z"/>
<path fill-rule="evenodd" fill="#FFFFFF" d="M2862.7,2017.9c3.2-14.6,0.4-28.6-7.7-39c-8.1-10.3-20.9-16.1-35.4-16.1h-405
	c-30.4,0-60.4,24.7-67,55.1l-0.9,4.1c-3.2,14.6-0.4,28.6,7.7,39c8.1,10.3,20.9,16.1,35.4,16.1h405c30.4,0,60.4-24.7,67-55.1
	L2862.7,2017.9z"/>
<path fill-rule="evenodd" fill="#FFFFFF" d="M3630,2295.8c1.9-8.9,0.4-17.4-4.5-23.7c-5-6.3-13-9.8-21.9-9.8H2328.3
	c-8.8,0-18.4,3.5-26.1,9.8c-7.3,6.3-12.9,14.8-14.8,23.7l0,0c-1.9,8.9,0,17.4,4.5,23.7c5,6.3,13,9.8,21.9,9.8h1275.3
	c8.8,0,18.4-3.5,26.1-9.8C3622.9,2313.3,3628.1,2304.8,3630,2295.8L3630,2295.8z"/>
<path fill-rule="evenodd" fill="#FFFFFF" d="M3600.7,2431.5c1.9-8.9,0.4-17.4-4.5-23.7c-5-6.3-13-9.8-21.9-9.8H2299
	c-8.8,0-18.4,3.5-26.1,9.8c-7.3,6.3-12.9,14.8-14.8,23.7l0,0c-1.9,8.9,0,17.4,4.5,23.7c5,6.3,13,9.8,21.9,9.8h1275.3
	c8.8,0,18.4-3.5,26.1-9.8S3598.8,2440.4,3600.7,2431.5L3600.7,2431.5z"/>
<path fill-rule="evenodd" fill="#FFFFFF" d="M3571.4,2567.1c1.9-8.9,0.4-17.4-4.5-23.7c-5-6.3-13-9.8-21.9-9.8H2269.7
	c-8.8,0-18.4,3.5-26.1,9.8c-7.3,6.3-12.9,14.8-14.8,23.7l0,0c-1.9,8.9,0,17.4,4.5,23.7c5,6.3,13,9.8,21.9,9.8h1275.3
	c8.8,0,18.4-3.5,26.1-9.8C3564.2,2584.6,3569.4,2576,3571.4,2567.1L3571.4,2567.1z"/>
<path fill="#FFFFFF" d="M3700.4,2021.9c-13.1,59.7-39.8,108.1-80.1,145.2s-86.6,55.6-138.6,55.4c-52.9-0.2-91.3-18.7-115.4-55.5
	c-24.1-36.9-29.2-86.7-15.5-149.5l10.5-48.1c13.2-60.1,39.8-108.4,80-144.9c40.2-36.4,86.3-54.6,138.4-54.4
	c52.4,0.2,90.8,18.7,115.1,55.5c24.3,36.9,29.6,86.5,15.9,148.8L3700.4,2021.9z M3605.3,1970.1c5.9-26.7,4.2-48.3-5-64.6
	c-9.2-16.3-24.1-24.5-44.8-24.5c-20.7-0.1-38.9,8.1-54.8,24.6c-15.8,16.5-26.8,38.5-32.8,66.1l-10.8,49.5
	c-5.9,26.7-4.5,48.4,4.1,64.9s23.6,24.8,45.1,24.9c20.3,0.1,38.5-8,54.7-24.2c16.1-16.2,27.3-38.8,33.7-67.8L3605.3,1970.1z
	 M3434.6,1473.4c-13.2,60.2-40,108.6-80.7,145.2c-40.5,36.7-86.7,54.9-138.5,54.8c-52.4-0.2-90.9-18.4-115.3-54.8
	c-24.3-36.4-29.5-86.5-15.5-150.2l10.5-48.1c13.1-59.7,39.5-107.9,79.3-144.6c39.9-36.7,86.2-54.9,139.1-54.8
	c53.2,0.2,91.8,18.8,115.9,55.8c24,37.1,29.4,86.1,16,147.2L3434.6,1473.4L3434.6,1473.4z M3339.6,1421c5.4-24.5,3.3-45.5-6.2-62.9
	s-24.2-26.1-44.1-26.2c-45.1-0.1-74.2,29.9-87.4,90l-11.1,50.8c-5.9,26.7-4.3,48.3,4.7,64.6c9,16.3,23.8,24.5,44.5,24.5
	c20.8,0.1,39.1-8,55.3-24.2c16.1-16.2,27.2-38.4,33.4-66.5L3339.6,1421L3339.6,1421z M3649.4,1308.2l67,51l-560.8,759.4l-67.1-51
	L3649.4,1308.2z"/>
<path fill="#FFFFFF" d="M2869.8,910.7H2843l-13,59.9h-33.7l35.4-163.6h60.8c19.3,0,33.2,4.3,41.9,12.9c8.6,8.6,11.2,20.8,7.8,36.5
	c-2.4,11.2-6.8,20.5-13.2,27.9c-6.5,7.4-15.1,13.4-25.8,17.8l20.9,66.9l-0.3,1.6h-36.2L2869.8,910.7z M2848.9,883.4h27.2
	c8.4,0,15.5-2.2,21.1-6.5s9.2-10.2,10.8-17.8c1.7-7.7,0.7-13.8-2.6-18.2c-3.5-4.4-9.7-6.6-18.7-6.6h-27.1L2848.9,883.4L2848.9,883.4
	z M2996.5,972.8c-17.8,0-31.2-5.5-40-16.4c-8.9-10.9-11.3-25.5-7.4-43.7l0.7-3.1c2.6-12.2,7.3-23.1,14.1-32.7
	c6.8-9.6,15.1-17,24.9-22.2c9.8-5.2,20.2-7.8,31.3-7.8c16.6,0,28.6,5.2,35.9,15.7c7.3,10.5,8.8,25.4,4.7,44.6l-2.9,13.3h-77.4
	c-0.7,7.9,1.1,14.3,5.3,19.1s10.4,7.2,18.5,7.2c12.5,0,23.3-4.5,32.3-13.6l12.1,17.9c-6.4,6.9-14.1,12.3-23.2,16.1
	C3016.2,970.9,3006.6,972.8,2996.5,972.8L2996.5,972.8z M3014.3,873.1c-6.4,0-12.2,2.2-17.1,6.5c-5,4.3-8.9,10.6-11.8,18.7h45.1
	l0.6-2.6c1.4-7.2,0.7-12.8-2.2-16.7C3026.1,875,3021.2,873.1,3014.3,873.1L3014.3,873.1z M3138.4,937c0.9-4-0.4-7.1-3.9-9.4
	c-3.4-2.3-9.3-4.3-17.6-6.1c-27.6-6.1-39.4-18.4-35.4-36.9c2.3-10.8,8.8-19.8,19.2-27c10.5-7.2,23-10.8,37.5-10.8
	c15.4,0,26.9,3.6,34.7,10.9c7.6,7.3,10.2,16.7,7.7,28.3h-32.4c1-4.6,0.3-8.5-2.1-11.5c-2.3-3-6.7-4.5-13-4.5
	c-5.4,0-9.9,1.2-13.5,3.7c-3.5,2.5-5.7,5.6-6.5,9.4c-0.8,3.6,0.3,6.5,3.2,8.7s8.2,4.1,16,5.7c7.7,1.6,14.1,3.4,19.3,5.5
	c15.8,6.3,22,17.2,18.6,32.7c-2.4,11.1-9.1,20-20.1,26.9s-24.1,10.3-39.1,10.3c-10.1,0-18.8-1.8-25.9-5.5
	c-7.1-3.6-12.2-8.6-15.4-14.9c-3-6.3-3.8-13.2-2.2-20.5h30.7c-0.9,5.8,0.2,10.2,3.6,13.3c3.3,3.1,8.3,4.6,15,4.6
	c6.2,0,11.2-1.2,14.9-3.5C3135.4,943.9,3137.6,940.8,3138.4,937L3138.4,937z M3259.1,958.2c-10.1,9.7-22.3,14.6-36.4,14.6
	c-13.1,0-22.2-3.7-27.5-11.2c-5.2-7.5-6.3-18.5-3.3-32.9l17.2-79.7h32.4l-17,78.5c-2.7,12.7,1.7,19,13.2,19c11,0,19.3-3.8,25.2-11.5
	l18.6-86.1h32.5l-26.3,121.6h-30.5L3259.1,958.2L3259.1,958.2z M3369.2,849l-1.9,13.6c10.9-10.6,23.6-15.8,38.4-15.8
	c15.6,0,25.1,6.2,28.2,18.5c11.3-12.4,24.8-18.5,40.6-18.5c13.2,0,22.2,3.8,26.9,11.5c4.8,7.7,5.5,19.2,2.2,34.7l-16.8,77.6h-32.6
	l16.8-77.5c1.5-6.9,1.3-11.9-0.8-15.1c-2-3.2-6.4-4.8-13.3-4.8c-9.7,0-17.4,4.6-23.2,13.9l-17.9,83.5h-32.4l16.7-77.4
	c1.5-7,1.2-12.1-0.9-15.3c-2.1-3.2-6.5-4.7-13.1-4.7c-9.2,0-16.7,3.8-22.5,11.5l-18.6,85.9h-32.4l26.3-121.6L3369.2,849L3369.2,849z
	 M3567.1,972.8c-17.8,0-31.1-5.5-40-16.4s-11.3-25.5-7.4-43.7l0.7-3.1c2.6-12.2,7.4-23.1,14.2-32.7c6.8-9.6,15.1-17,24.9-22.2
	c9.7-5.2,20.2-7.8,31.3-7.8c16.6,0,28.6,5.2,35.9,15.7s8.8,25.4,4.7,44.6l-2.9,13.3H3551c-0.6,7.9,1.2,14.3,5.4,19.1
	s10.4,7.2,18.5,7.2c12.5,0,23.3-4.5,32.3-13.6l12.1,17.9c-6.4,6.9-14.1,12.3-23.3,16.1C3586.8,970.9,3577.2,972.8,3567.1,972.8
	L3567.1,972.8z M3584.9,873.1c-6.4,0-12.1,2.2-17.1,6.5s-8.9,10.6-11.7,18.7h45.1l0.6-2.6c1.4-7.2,0.7-12.8-2.2-16.7
	C3596.7,875,3591.8,873.1,3584.9,873.1z"/>
<g transform="rotate(-46.718 2448.455 15075.397)scale(7.15034)">
	<path fill-rule="evenodd" fill="#BAC4FA" d="M1784.9,764.7l-84.3-9.2l-101.2-56.7c0,0-39.6,50.5-18.2,83.7
		c14.9,23.1,92.2,57.8,119.8,45.5c56.8-25.3,107.2-28.7,109.7-47.9c0,0,4-10.8,4.8-14.3c7.2-29.4-3.8-29.3-3.8-29.3
		s-10.9,29.4-11.1,12.9c0-2.6-5.1-1.2-7.8,3C1789.4,757.6,1784.9,764.7,1784.9,764.7L1784.9,764.7z"/>
	<g>
		
			<image width="1479" height="1438" xlink:href="8DBDE5D4.png"  transform="matrix(9.588211e-02 0.1018 -0.1018 9.588211e-02 1693.9852 609.686)">
		</image>
	</g>
</g>
<g transform="matrix(6.78983 -3.72373 3.82692 6.97797 -9097.544 2622.967)">
	<path fill-rule="evenodd" fill="#020C41" d="M1455.3,421.8c0-3.2-1.3-6.3-3.7-8.6c-2.4-2.3-5.6-3.6-8.9-3.6h-4.9
		c-3.3,0-6.5,1.3-8.9,3.6c-2.4,2.3-3.7,5.4-3.7,8.6V625c0,2,0.3,4,1,5.8c2.3,6.7,8,23.5,11.4,33.5c0.4,1.1,1.4,1.8,2.6,1.8
		s2.3-0.7,2.6-1.8c3.4-10,9.1-26.8,11.4-33.5c0.6-1.9,1-3.8,1-5.8L1455.3,421.8L1455.3,421.8z"/>
	<g>
		
			<image width="1061" height="1815" xlink:href="8DBDE5DB.png"  transform="matrix(0.1132 6.042108e-02 -6.209544e-02 0.1102 1433.899 403.0952)">
		</image>
	</g>
</g>
<path fill-rule="evenodd" fill="#FFFFFF" d="M2383.8,264.7c-12.6-22.9-41.3-31.3-64.3-18.8c-22.9,12.6-31.3,41.4-18.8,64.3
	l125.8,229.4c12.6,22.9,41.4,31.3,64.3,18.7s31.3-41.4,18.7-64.3L2383.8,264.7z"/>
<g transform="matrix(11.54453 0 0 5.72923 -14281.33 -1564.94)">
	<path fill-rule="evenodd" fill="#052CF2" d="M1407.1,560.1c-9.4-21.6-61.9-18.8-70.6,3.1c-25.1,63.6-14.1,213.7-14.1,213.7
		l107.6,1.8C1415.9,742.9,1422.7,596,1407.1,560.1z"/>
	<g>
		<image width="1271" height="1339" xlink:href="8DBDE5DC.png"  transform="matrix(8.662111e-02 0 0 0.1745 1319.9611 545.1413)">
		</image>
	</g>
</g>
<g transform="rotate(-20.73 -2545.86 27848.948)scale(7.15033)">
	<path fill-rule="evenodd" fill="#BAC4FA" d="M1652.7,667.6l-45.6,58.6l-101.2-56.7c0,0-39.6,50.5-18.2,83.7
		c14.9,23.1,92.2,57.8,119.8,45.5c56.8-25.3,68.6-96.4,71.1-115.7c0,0,4-10.8,4.8-14.3c7.2-29.4-3.8-29.3-3.8-29.3
		s-13.6,27.9-13.8,11.4c0-2.6-3.7-4-6.5,0.1C1655.8,656.1,1652.7,667.6,1652.7,667.6L1652.7,667.6z"/>
	<g>
		
			<image width="1272" height="1351" xlink:href="8DBDE5DD.png"  transform="matrix(0.1308 4.950326e-02 -4.950326e-02 0.1308 1532.2469 583.4146)">
		</image>
	</g>
</g>
<g transform="matrix(7.15034 0 0 7.24417 -8286.676 -3400.52)">
	<path fill-rule="evenodd" fill="#BAC4FA" d="M1390.8,661.4h-24.7c2.6,10-3.2,18-6.5,24.7c7,13.4,25.9,7.8,31-1.5
		C1385.9,675,1386.5,669,1390.8,661.4L1390.8,661.4z"/>
	<g>
		<image width="225" height="238" xlink:href="8DBDE5DA.png"  transform="matrix(0.1399 0 0 0.138 1359.4705 661.3346)">
		</image>
	</g>
</g>
<path fill-rule="evenodd" fill="#BAC4FA" d="M1601.7,1121.3c81.3,0,147.4,80.7,147.4,180.1s-9.1,189.6-90.4,189.6
	s-204.4-90.2-204.4-189.6C1454.3,1202,1520.3,1121.3,1601.7,1121.3z"/>
<path fill-rule="evenodd" fill="#030A2F" d="M1500.1,1095.7c-3-14.1-4.6-28.7-4.6-43.7c0-113.2,91.9-205.1,205.1-205.1
	s205.1,91.9,205.1,205.1s-91.8,205.1-205.1,205.1c-3.3,0-6.7-0.1-9.9-0.2c6.5,15.6,9.9,32.3,9.9,49.3c0,70.1-57,127.1-127.1,127.1
	c-34.4,0-65.7-13.7-88.5-35.9c-11.1,5.7-23.4,8.7-35.9,8.7c-43.2,0-78.3-35.1-78.3-78.3c0-36.9,25.6-67.9,59.9-76.1
	c-8.9-15.9-13.6-33.8-13.6-52C1417.2,1148.9,1452.7,1106.4,1500.1,1095.7L1500.1,1095.7z"/>
<g transform="translate(-7157.363 -2455.351)scale(6.44542)">
	<path fill-rule="evenodd" fill="#767FAD" d="M1758.9,830.8c0.5-6.9,2.8-13.7,5-20.2c5.8-17.2,14.1-32.7,28.9-43.9
		c7.2-5.4,16.9-10.5,26.2-9.2c4.4,0.6,9.3,3.1,9.1,8.2c-0.4,9.1-11.3,16.2-18,20.7C1793.8,797.4,1763.5,809.1,1758.9,830.8z"/>
	<g>
		<image width="447" height="475" xlink:href="8DBDE5D9.png"  transform="matrix(0.1551 0 0 0.1551 1758.8246 757.2278)">
		</image>
	</g>
</g>
<g transform="matrix(-6.44542 0 0 6.44542 16361.204 -2455.351)">
	<path fill-rule="evenodd" fill="#767FAD" d="M1895,830.8c0.5-6.9,2.8-13.7,5-20.2c5.8-17.2,14.1-32.7,28.9-43.9
		c7.2-5.4,16.9-10.5,26.2-9.2c4.4,0.6,9.3,3.1,9.1,8.2c-0.4,9.1-11.3,16.2-18,20.7C1929.9,797.4,1899.6,809.1,1895,830.8z"/>
	<g>
		<image width="447" height="475" xlink:href="8DBDE5C8.png"  transform="matrix(-0.1551 0 0 0.1551 1964.217 757.2278)">
		</image>
	</g>
</g>
<g transform="matrix(8.55027 0 0 8.31882 -11020.102 -4467.92)">
	<path fill-rule="evenodd" fill="#767FAD" d="M1779.3,883c-0.3-10-0.9-20.8,0.2-31.1c1.1-9.8,3.7-19.2,10-27
		c6.8-8.5,16.5-13.8,25.1-19.9c9.7-6.9,18.1-14.7,21.3-27.7c1-3.9,1.4-8,1-12c-0.4-4.3-1.8-8.4-3.6-12.3c-0.9-1.9-3.1-2.6-4.9-1.7
		s-2.6,3.2-1.7,5c1.5,3.1,2.6,6.3,2.9,9.7c0.3,3.1,0,6.3-0.8,9.4c-2.8,11-10.2,17.6-18.4,23.4c-9.2,6.6-19.4,12.3-26.6,21.3
		c-14,17.5-12.4,41.9-11.9,63.1c0.1,2.1,1.7,3.7,3.8,3.7C1777.8,886.8,1779.4,885.1,1779.3,883L1779.3,883z"/>
	<g>
		<image width="561" height="1132" xlink:href="8DBDE5C9.png"  transform="matrix(0.117 0 0 0.1202 1771.5349 750.8541)">
		</image>
	</g>
</g>
<circle fill-rule="evenodd" fill="#052CF2" cx="4597.3" cy="1705" r="294.1"/>
<g>
	<path fill-rule="evenodd" fill="#0024D9" d="M4837.1,1475.5c29.7,144.5,19.5,318.7-111.7,410.9c-25.6,17.4-52.3,31.8-82,41
		c-72.8,24.6-160.9,24.6-230.6-9.2c-20.5-10.2-40-22.5-56.4-37.9c-10.2-10.2-20.5-26.6-33.8-32.8c-13.3-6.1-16.4,10.2-15.4,19.5
		c3.1,34.8,26.6,69.7,48.2,96.3c82,101.5,217.2,131.2,339.2,91.2C4903.7,1985.8,5014.4,1667.1,4837.1,1475.5L4837.1,1475.5z"/>
</g>
<path fill-rule="evenodd" fill="#052CF2" d="M4770,1249.1l11.6,74.6l74.7,11.6l-74.7,11.6l-11.6,74.6l-11.6-74.6l-74.6-11.6
	l74.6-11.6L4770,1249.1z"/>
<path fill-rule="evenodd" fill="#052CF2" d="M4886.5,1198.4l6.8,43.8l43.8,6.8l-43.8,6.8l-6.8,43.8l-6.8-43.8l-43.8-6.8l43.8-6.8
	L4886.5,1198.4z"/>
<path fill-rule="evenodd" fill="#052CF2" d="M4886.5,1388.9l6.8,43.8l43.8,6.8l-43.8,6.8l-6.8,43.8l-6.8-43.8l-43.8-6.8l43.8-6.8
	L4886.5,1388.9z"/>
<path fill="#FFFFFF" d="M4637.3,1724.2c-5.4-9.4-12.3-15.4-20.8-17.9c-8.4-2.6-20.2-2.6-35.4-0.1c-15.2,2.5-28.6,4.1-40.3,4.6
	c-11.7,0.6-22.6-0.2-32.5-2.5s-19.2-6.5-27.3-12.5c-8.3-6-15.7-14.7-22.2-25.9c-11.2-19.3-14.1-38.8-8.9-58.3s17.5-36.2,36.8-50.1
	l-21.2-36.7l27.5-15.9l21.5,37.3c21.9-8.8,42.7-9.6,62.2-2.1c19.5,7.4,35.8,22.3,48.6,44.6l-49.6,28.7
	c-7.9-13.7-16.7-22.4-26.3-25.9c-9.6-3.5-19.2-2.6-28.6,2.9c-9.4,5.4-15.1,12.3-17.2,20.6c-2.1,8.3-0.4,17.1,5,26.5
	c5,8.7,11.6,14.2,19.7,16.6s20.5,2.3,37.4-0.1s31.1-3.7,42.7-3.9c11.6-0.2,22.2,1,31.8,3.6c9.4,2.5,18.3,6.9,26,12.9
	s14.6,14.2,20.6,24.6c11.2,19.5,14.3,38.8,9.2,57.9c-5.1,19.1-17.7,36-37.7,50.4l19.7,34.2l-27.3,15.8l-19.6-34
	c-24.9,11-47.9,13.2-68.9,6.5s-38.3-21.8-51.9-45.2l49.6-28.7c7.9,13.6,17.1,22.2,27.8,25.7c10.7,3.5,22.1,1.8,34.2-5.2
	c10.1-5.8,16.5-13.1,19.3-21.8C4643.7,1742.1,4642.5,1733.2,4637.3,1724.2L4637.3,1724.2z"/>
<path fill-rule="evenodd" fill="#030A2F" d="M3980.9,2882.3H435.3v23.3h3545.6L3980.9,2882.3L3980.9,2882.3z"/>
<path fill-rule="evenodd" fill="#030A2F" d="M4479.1,2885.2h-379.9v24.7h379.9V2885.2z"/>
<circle fill-rule="evenodd" fill="#858FC2" cx="1053.5" cy="1098.4" r="307.2"/>
<path fill-rule="evenodd" fill="#FFFFFF" d="M897.2,1138.2l79.7,111.6c8.7,12.1,22.7,19.1,37.5,18.7c14.8-0.4,28.5-8.1,36.6-20.6
	l160-250.7c13.2-20.6,7.3-48.1-13.2-61.4c-0.1-0.1-0.3-0.2-0.4-0.3c-20.8-13.3-48.4-7.2-61.7,13.6l-124.4,195l-41.2-57.7
	c-14.3-20.1-42.2-24.7-62.3-10.4c-19.9,14.1-24.7,41.8-10.7,61.9C897,1137.9,897.1,1138,897.2,1138.2L897.2,1138.2z"/>
</svg>
